PathFileType	4	(X/Y/Z)	/Users/itak/Documents/Research/Walk-IL/dataset/trc/00480_00167.trc
DataRate	CameraRate	NumFrames	NumMarkers	Units	OrigDataRate	OrigDataStartFrame	OrigNumFrames
100.000000	100.000000	4	53	mm	100.000000	0	613
Frame#	Time	RPSI			LPSI			L3			STRN			T10			C7			CLAV			RBAK			LBAK			LSHO			LUPA			LAEL			LAOL			LWTS			LWPS			LFRA			LIFD			LHPS			LHTS			RSHO			RUPA			RAEL			RAOL			RWTS			RWPS			RFRA			RIFD			RHTS			RHPS			RBHD			LFHD			RFHD			LBHD			LHIP			RHIP			RASI			LASI			LKNE			LTHI			LANK			LTIP			LTOE			LMT1			LMT5			LHEE			RKNE			RTHI			RANK			RTIP			RTOE			RMT1			RMT5			RHEE			
		X1	Y1	Z1	X2	Y2	Z2	X3	Y3	Z3	X4	Y4	Z4	X5	Y5	Z5	X6	Y6	Z6	X7	Y7	Z7	X8	Y8	Z8	X9	Y9	Z9	X10	Y10	Z10	X11	Y11	Z11	X12	Y12	Z12	X13	Y13	Z13	X14	Y14	Z14	X15	Y15	Z15	X16	Y16	Z16	X17	Y17	Z17	X18	Y18	Z18	X19	Y19	Z19	X20	Y20	Z20	X21	Y21	Z21	X22	Y22	Z22	X23	Y23	Z23	X24	Y24	Z24	X25	Y25	Z25	X26	Y26	Z26	X27	Y27	Z27	X28	Y28	Z28	X29	Y29	Z29	X30	Y30	Z30	X31	Y31	Z31	X32	Y32	Z32	X33	Y33	Z33	X34	Y34	Z34	X35	Y35	Z35	X36	Y36	Z36	X37	Y37	Z37	X38	Y38	Z38	X39	Y39	Z39	X40	Y40	Z40	X41	Y41	Z41	X42	Y42	Z42	X43	Y43	Z43	X44	Y44	Z44	X45	Y45	Z45	X46	Y46	Z46	X47	Y47	Z47	X48	Y48	Z48	X49	Y49	Z49	X50	Y50	Z50	X51	Y51	Z51	X52	Y52	Z52	X53	Y53	Z53	

1	0	-1338.494873046875	956.2625122070312	-49.20447540283203	-1313.442626953125	956.7710571289062	-187.7959442138672	-1319.238037109375	1052.732299804688	-103.1247482299805	-1060.315307617188	1259.93603515625	-72.24140930175781	-1342.435180664062	1175.584838867188	-109.3171615600586	-1289.669799804688	1444.678344726562	-85.65847778320312	-1101.490478515625	1371.04931640625	-79.07427215576172	-1358.996215820312	1321.219482421875	0.3728548288345337	-1310.810913085938	1398.112426757812	-189.1095886230469	-1201.278198242188	1427.928588867188	-255.0655670166016	-1192.65966796875	1311.590454101562	-356.5036926269531	-1153.917846679688	1098.6015625	-388.4618530273438	-1238.479370117188	1082.988403320312	-331.1798095703125	-1078.257568359375	895.3580932617188	-352.2515258789062	-1122.511840820312	881.0343017578125	-411.3136291503906	-1133.72119140625	1012.137268066406	-401.2836303710938	-1060.674438476562	744.33251953125	-369.4776611328125	-1116.691162109375	802.7210083007812	-412.4490051269531	-1062.808349609375	811.3417358398438	-364.0073852539062	-1241.054931640625	1416.101440429688	80.07110595703125	-1263.933959960938	1354.2861328125	153.7641754150391	-1240.05322265625	1068.655151367188	212.5963897705078	-1282.082641601562	1047.705810546875	164.1011810302734	-1112.673461914062	874.0746459960938	194.63427734375	-1189.817504882812	852.1268920898438	236.3742370605469	-1234.096557617188	1011.022338867188	223.9197082519531	-1100.046752929688	718.2523803710938	211.1146392822266	-1092.305786132812	778.5286865234375	210.7305755615234	-1166.481567382812	767.5346069335938	237.2250671386719	-1259.96337890625	1636.504638671875	-3.826891660690308	-1081.604858398438	1679.58935546875	-101.3374710083008	-1130.30224609375	1675.768310546875	20.07412338256836	-1210.143310546875	1643.434692382812	-175.7203826904297	-1158.833740234375	864.4564819335938	-284.6330871582031	-1248.3984375	858.1809692382812	109.4053421020508	-1133.671264648438	900.09765625	65.30204010009766	-1076.131591796875	901.4405517578125	-188.2267303466797	-1170.207641601562	446.7845458984375	-263.8652648925781	-1135.018676757812	598.2662353515625	-273.6981201171875	-1247.185180664062	41.64045715332031	-280.5816650390625	-1180.521728515625	301.2804870605469	-284.4201354980469	-1020.966064453125	46.07883071899414	-190.8936309814453	-1098.933715820312	51.38716125488281	-169.7739105224609	-1092.066284179688	48.58944320678711	-281.9403686523438	-1296.964965820312	45.37771224975586	-219.8616333007812	-1231.086303710938	468.9013061523438	103.3877944946289	-1205.351928710938	727.2423095703125	129.9053955078125	-1297.943969726562	46.08237838745117	122.4488906860352	-1238.7314453125	330.0188293457031	121.4047698974609	-1076.093017578125	48.33923721313477	113.7176132202148	-1133.463134765625	50.58670806884766	64.99127960205078	-1169.661743164062	50.13086700439453	167.4790802001953	-1354.341674804688	35.8362922668457	67.12628936767578	
2	0.01	-1338.469360351562	956.2715454101562	-49.14286804199219	-1313.4462890625	956.7623291015625	-187.7595367431641	-1319.226440429688	1052.760620117188	-103.0560531616211	-1060.257202148438	1259.944702148438	-72.27320861816406	-1342.4111328125	1175.5947265625	-109.2991104125977	-1289.647094726562	1444.681884765625	-85.66694641113281	-1101.42822265625	1371.059814453125	-79.09555816650391	-1358.962646484375	1321.249267578125	0.3903403878211975	-1310.756469726562	1398.127197265625	-189.1539001464844	-1201.239990234375	1427.931030273438	-255.0864105224609	-1192.654907226562	1311.5888671875	-356.5243835449219	-1153.87646484375	1098.538696289062	-388.4129333496094	-1238.459716796875	1082.965209960938	-331.1605224609375	-1078.22216796875	895.3482666015625	-352.1184997558594	-1122.510864257812	880.9990234375	-411.1991882324219	-1133.723876953125	1012.0703125	-401.177978515625	-1060.616577148438	744.3668212890625	-369.2373657226562	-1116.683227539062	802.728759765625	-412.2601013183594	-1062.710815429688	811.279541015625	-363.7224731445312	-1241.017944335938	1416.164428710938	80.05635833740234	-1263.891723632812	1354.389038085938	153.7343902587891	-1240.051513671875	1068.776245117188	212.7533111572266	-1282.067016601562	1047.81884765625	164.2241821289062	-1112.71826171875	874.1400146484375	194.9005889892578	-1189.95947265625	852.287109375	236.5553741455078	-1234.092163085938	1011.14306640625	224.0626678466797	-1100.190063476562	718.2986450195312	211.4369506835938	-1092.447265625	778.5984497070312	211.0670166015625	-1166.640991210938	767.6474609375	237.5757598876953	-1259.916381835938	1636.467651367188	-3.774714231491089	-1081.57568359375	1679.592163085938	-101.2773361206055	-1130.20947265625	1675.737060546875	20.1097240447998	-1210.122192382812	1643.475341796875	-175.6851043701172	-1158.845336914062	864.4657592773438	-284.6361694335938	-1248.294555664062	858.1751098632812	109.3903427124023	-1133.501098632812	900.1263427734375	65.335205078125	-1076.146240234375	901.4413452148438	-188.2633819580078	-1170.20703125	446.7825622558594	-263.8604125976562	-1135.0341796875	598.2706909179688	-273.7005310058594	-1247.117309570312	41.53888320922852	-280.4931030273438	-1180.530151367188	301.28759765625	-284.4119567871094	-1020.957336425781	46.08383941650391	-190.8697814941406	-1098.93359375	51.38189315795898	-169.7736663818359	-1092.061645507812	48.58958435058594	-281.9435729980469	-1296.967651367188	45.37879180908203	-219.8612976074219	-1231.04296875	468.90380859375	103.3969116210938	-1205.29736328125	727.2434692382812	129.9231414794922	-1297.930297851562	46.07233428955078	122.4382019042969	-1238.71044921875	330.0140991210938	121.4040222167969	-1076.09228515625	48.33552932739258	113.7223358154297	-1133.463134765625	50.58725357055664	64.99083709716797	-1169.6708984375	50.13046646118164	167.494873046875	-1354.340454101562	35.83960342407227	67.12358856201172	
3	0.02	-1338.435791015625	956.2833251953125	-49.07176971435547	-1313.44921875	956.7549438476562	-187.7161254882812	-1319.207641601562	1052.796752929688	-102.9719696044922	-1060.176391601562	1259.958984375	-72.31639862060547	-1342.375122070312	1175.609497070312	-109.2763290405273	-1289.615478515625	1444.68701171875	-85.67478179931641	-1101.362548828125	1371.072875976562	-79.12665557861328	-1358.9150390625	1321.286987304688	0.4122162461280823	-1310.693359375	1398.143432617188	-189.2049713134766	-1201.196533203125	1427.9345703125	-255.1126861572266	-1192.654174804688	1311.58837890625	-356.5513000488281	-1153.831420898438	1098.46630859375	-388.3598327636719	-1238.441284179688	1082.9375	-331.1387939453125	-1078.179443359375	895.34033203125	-351.9587707519531	-1122.497924804688	880.9527587890625	-411.0560607910156	-1133.71435546875	1011.992370605469	-401.0571899414062	-1060.530151367188	744.4215087890625	-368.9480590820312	-1116.667724609375	802.7383422851562	-412.0387573242188	-1062.6083984375	811.2201538085938	-363.3773193359375	-1240.968994140625	1416.241088867188	80.03932952880859	-1263.833984375	1354.514282226562	153.7024993896484	-1240.065063476562	1068.923461914062	212.9524230957031	-1282.069580078125	1047.964477539062	164.4038696289062	-1112.783447265625	874.2208251953125	195.2222137451172	-1190.12451171875	852.4750366210938	236.782470703125	-1234.096069335938	1011.289855957031	224.2389221191406	-1100.353637695312	718.3616333007812	211.8236846923828	-1092.630126953125	778.6890258789062	211.4891967773438	-1166.836181640625	767.7832641601562	238.0009460449219	-1259.857543945312	1636.433715820312	-3.707959413528442	-1081.541625976562	1679.5888671875	-101.2222137451172	-1130.084594726562	1675.697998046875	20.14911079406738	-1210.09716796875	1643.522583007812	-175.6423034667969	-1158.857299804688	864.4744873046875	-284.6390686035156	-1248.176391601562	858.169677734375	109.3790588378906	-1133.296630859375	900.16796875	65.37060546875	-1076.160034179688	901.4447021484375	-188.2992706298828	-1170.206176757812	446.7801818847656	-263.8536376953125	-1135.0478515625	598.2734985351562	-273.6993713378906	-1247.054077148438	41.4454231262207	-280.4094848632812	-1180.53515625	301.293212890625	-284.400634765625	-1020.947998046875	46.09003067016602	-190.8428649902344	-1098.931884765625	51.37934112548828	-169.7736511230469	-1092.058227539062	48.58819580078125	-281.9446716308594	-1296.971801757812	45.38034057617188	-219.8606109619141	-1230.993774414062	468.9060974121094	103.4091949462891	-1205.236694335938	727.246337890625	129.9475555419922	-1297.917358398438	46.06387710571289	122.428596496582	-1238.68505859375	330.0077819824219	121.4030075073242	-1076.09326171875	48.33339309692383	113.7267456054688	-1133.462890625	50.58758544921875	64.99045562744141	-1169.680908203125	50.13008499145508	167.5117645263672	-1354.33935546875	35.84452438354492	67.12114715576172	
4	0.03	-1338.394409179688	956.298095703125	-48.99741744995117	-1313.45068359375	956.7505493164062	-187.6675109863281	-1319.180541992188	1052.838623046875	-102.8768844604492	-1060.071166992188	1259.97998046875	-72.37045288085938	-1342.326049804688	1175.629272460938	-109.2498092651367	-1289.575439453125	1444.693725585938	-85.68019866943359	-1101.299438476562	1371.088623046875	-79.16775512695312	-1358.852783203125	1321.3310546875	0.4377049207687378	-1310.627197265625	1398.15966796875	-189.2571411132812	-1201.151611328125	1427.939453125	-255.1428833007812	-1192.65966796875	1311.589599609375	-356.5831298828125	-1153.787353515625	1098.390625	-388.3081665039062	-1238.426879882812	1082.906860351562	-331.1165466308594	-1078.132080078125	895.3365478515625	-351.7836303710938	-1122.467163085938	880.8978271484375	-410.8912963867188	-1133.688354492188	1011.909973144531	-400.9312744140625	-1060.408081054688	744.4974975585938	-368.6281433105469	-1116.642211914062	802.7474365234375	-411.8027648925781	-1062.515869140625	811.1729125976562	-362.9969787597656	-1240.90869140625	1416.326904296875	80.02164459228516	-1263.760864257812	1354.654541015625	153.6727294921875	-1240.099487304688	1069.08837890625	213.1865539550781	-1282.09716796875	1048.136108398438	164.6371612548828	-1112.870971679688	874.3131713867188	195.5827484130859	-1190.302001953125	852.676513671875	237.0484313964844	-1234.112060546875	1011.455261230469	224.4402008056641	-1100.526611328125	718.4409790039062	212.2548065185547	-1092.846435546875	778.7967529296875	211.9760589599609	-1167.051879882812	767.9319458007812	238.4698486328125	-1259.786743164062	1636.40966796875	-3.628353834152222	-1081.503051757812	1679.576293945312	-101.1842269897461	-1129.928833007812	1675.653564453125	20.18796730041504	-1210.072021484375	1643.57373046875	-175.5933227539062	-1158.867919921875	864.481689453125	-284.6409606933594	-1248.055541992188	858.166015625	109.3761520385742	-1133.073120117188	900.219970703125	65.40635681152344	-1076.169677734375	901.450927734375	-188.3281555175781	-1170.204345703125	446.7769775390625	-263.8452453613281	-1135.056274414062	598.27392578125	-273.6929931640625	-1247.000854492188	41.36808776855469	-280.3383178710938	-1180.53466796875	301.2964172363281	-284.3865356445312	-1020.938842773438	46.09668731689453	-190.8156890869141	-1098.9287109375	51.38013458251953	-169.7739868164062	-1092.057250976562	48.58563232421875	-281.9432983398438	-1296.97705078125	45.38230133056641	-219.8594970703125	-1230.943603515625	468.9076843261719	103.4243087768555	-1205.175537109375	727.2513427734375	129.9783477783203	-1297.908447265625	46.05917739868164	122.4232788085938	-1238.657592773438	330.0004577636719	121.4021911621094	-1076.095581054688	48.3326416015625	113.7304306030273	-1133.46240234375	50.5876350402832	64.99012756347656	-1169.690551757812	50.12980270385742	167.5282745361328	-1354.338500976562	35.85066986083984	67.11920166015625	
